# xmcd CD database file generated by OrangeCD 6.2
#
# Track frame offsets:
#	150
#	25695
#	53407
#	80497
#	107920
#	136112
#	161292
#	182950
#
# Disc length: 2717 seconds
#
# Revision: 4
# Processed by: cddbd v1.5.2PL0 Copyright (c) Steve Scherf et al.
# Submitted via: OrangeCD 6.2
#
DISCID=580a9b08
DTITLE=Various Artist - Zen Landscape
DYEAR=1999
DGENRE=Chinese Classical
TTITLE0=Kun Tsan - Fishing by the River
TTITLE1=The Ba-Da Hermit - Flowers on the River
TTITLE2=Shi Tao - Happy for the Rain
TTITLE3=The Ba-Da Hermit - Imitation of Don Bei-Yuan's Landscape
TTITLE4=Hong Jen - Willows After Thunder Rain
TTITLE5=Shi Tao - Nest Lake
TTITLE6=Hong Jen - Bamboo, Rocks, Wind and Springs
TTITLE7=Kun Tsan - Chamber by the Pines and Rocks
EXTD=
EXTT0=
EXTT1=
EXTT2=
EXTT3=
EXTT4=
EXTT5=
EXTT6=
EXTT7=
PLAYORDER=
